<svg width="21" height="24" viewBox="0 0 21 24" fill="none" xmlns="http://www.w3.org/2000/svg">
<path fill-rule="evenodd" clip-rule="evenodd" d="M0.699459 0.761932C0.456138 1.04098 0.316284 1.47046 0.316284 2.02855V21.8796C0.316284 22.4377 0.456138 22.8671 0.708559 23.1365L0.774502 23.1959L11.1987 12.073V11.823L0.765409 0.702484L0.699459 0.761932Z" fill="#171717" fill-opacity="0.6"/>
<path fill-rule="evenodd" clip-rule="evenodd" d="M14.6669 15.7953L11.1898 12.084V11.8244L14.668 8.11305L14.743 8.16278L18.8568 10.6572C20.0348 11.3657 20.0348 12.5329 18.8568 13.2511L14.743 15.7455C14.7419 15.7455 14.6669 15.7953 14.6669 15.7953Z" fill="#020203"/>
<path fill-rule="evenodd" clip-rule="evenodd" d="M14.7417 15.7456L11.1896 11.9543L0.699463 23.1476C1.08264 23.5868 1.72733 23.6365 2.4482 23.207L14.7417 15.7456Z" fill="#020203"/>
<path fill-rule="evenodd" clip-rule="evenodd" d="M14.7417 8.16368L2.4482 0.711971C1.72846 0.272779 1.08264 0.332228 0.699463 0.77142L11.1884 11.9539L14.7417 8.16368Z" fill="#020203"/>
<g opacity="0.2">
<mask id="mask0_2574_9514" style="mask-type:alpha" maskUnits="userSpaceOnUse" x="0" y="15" width="15" height="9">
<g opacity="0.2">
<path opacity="0.2" fill-rule="evenodd" clip-rule="evenodd" d="M14.6666 15.6653L2.45723 23.0672C1.77502 23.4858 1.16671 23.4566 0.774446 23.0769L0.708496 23.1473L0.774446 23.2067C1.16671 23.5853 1.77502 23.6156 2.45723 23.1971L14.7507 15.7453L14.6666 15.6653Z" fill="white"/>
</g>
</mask>
<g mask="url(#mask0_2574_9514)">
<path opacity="0.2" fill-rule="evenodd" clip-rule="evenodd" d="M14.6666 15.6653L2.45723 23.0672C1.77502 23.4858 1.16671 23.4566 0.774446 23.0769L0.708496 23.1473L0.774446 23.2067C1.16671 23.5853 1.77502 23.6156 2.45723 23.1971L14.7507 15.7453L14.6666 15.6653Z" fill="#020203"/>
<path opacity="0.2" d="M14.6665 15.6652L15.1092 15.0521L14.7524 14.7125L14.3426 14.9609L14.6665 15.6652ZM2.45719 23.0672L2.13329 22.3629L2.13026 22.3648L2.45719 23.0672ZM0.774397 23.0769L1.22154 22.468L0.752024 22.0135L0.302176 22.4935L0.774397 23.0769ZM0.708447 23.1472L0.236229 22.5639L-0.358276 23.1982L0.280087 23.7737L0.708447 23.1472ZM0.774397 23.2067L1.2207 22.597L1.21185 22.5885L1.20276 22.5803L0.774397 23.2067ZM2.45719 23.197L2.13333 22.4927L2.13026 22.4946L2.45719 23.197ZM14.7507 15.7453L15.0745 16.4496L15.9928 15.8929L15.1933 15.1322L14.7507 15.7453ZM14.3426 14.9609L2.13329 22.3629L2.78108 23.7715L14.9904 16.3695L14.3426 14.9609ZM2.13026 22.3648C1.59561 22.6928 1.31961 22.563 1.22154 22.468L0.327257 23.6858C1.01373 24.3503 1.95434 24.2788 2.78411 23.7696L2.13026 22.3648ZM0.302176 22.4935L0.236229 22.5639L1.18067 23.7307L1.24661 23.6603L0.302176 22.4935ZM0.280087 23.7737L0.346034 23.8331L1.20276 22.5803L1.13681 22.5208L0.280087 23.7737ZM0.328094 23.8164C1.01369 24.478 1.95324 24.4092 2.78411 23.8994L2.13026 22.4946C1.5967 22.822 1.31965 22.6925 1.2207 22.597L0.328094 23.8164ZM2.78103 23.9013L15.0745 16.4496L14.4268 15.041L2.13334 22.4927L2.78103 23.9013ZM15.1933 15.1322L15.1092 15.0521L14.2238 16.2784L14.308 16.3585L15.1933 15.1322Z" fill="#020203"/>
</g>
</g>
<g opacity="0.12">
<mask id="mask1_2574_9514" style="mask-type:alpha" maskUnits="userSpaceOnUse" x="14" y="11" width="6" height="5">
<g opacity="0.12">
<path opacity="0.12" fill-rule="evenodd" clip-rule="evenodd" d="M18.8556 13.1213L14.6577 15.6655L14.7327 15.7456L18.8465 13.2512C19.4355 12.8921 19.7254 12.4238 19.7254 11.9543C19.6879 12.3837 19.3888 12.7926 18.8556 13.1213Z" fill="white"/>
</g>
</mask>
<g mask="url(#mask1_2574_9514)">
<path opacity="0.12" fill-rule="evenodd" clip-rule="evenodd" d="M18.8556 13.1213L14.6577 15.6655L14.7327 15.7456L18.8465 13.2512C19.4355 12.8921 19.7254 12.4238 19.7254 11.9543C19.6879 12.3837 19.3888 12.7926 18.8556 13.1213Z" fill="#020203"/>
<path opacity="0.12" d="M18.8556 13.1213L19.1795 13.8257L19.1838 13.823L18.8556 13.1213ZM14.6578 15.6655L14.334 14.9612L13.4696 15.485L14.1855 16.2489L14.6578 15.6655ZM14.7327 15.7456L14.2605 16.329L14.6213 16.7138L15.0567 16.4498L14.7327 15.7456ZM18.8465 13.2512L19.1704 13.9554L19.1719 13.9546L18.8465 13.2512ZM19.7254 11.9543H20.4191L19.0352 11.8748L19.7254 11.9543ZM18.5318 12.417L14.334 14.9612L14.9816 16.3698L19.1795 13.8257L18.5318 12.417ZM14.1855 16.2489L14.2605 16.329L15.205 15.1622L15.13 15.0821L14.1855 16.2489ZM15.0567 16.4498L19.1704 13.9554L18.5226 12.5469L14.4088 15.0413L15.0567 16.4498ZM19.1719 13.9546C19.8747 13.526 20.4191 12.8407 20.4191 11.9543H19.0318C19.0318 12.0068 18.9963 12.2581 18.5212 12.5478L19.1719 13.9546ZM19.0352 11.8748C19.0316 11.9168 18.9764 12.143 18.5275 12.4197L19.1838 13.823C19.8014 13.4423 20.3443 12.8506 20.4156 12.0337L19.0352 11.8748Z" fill="#020203"/>
</g>
</g>
<g opacity="0.25">
<mask id="mask2_2574_9514" style="mask-type:alpha" maskUnits="userSpaceOnUse" x="0" y="0" width="20" height="12">
<g opacity="0.25">
<path opacity="0.25" fill-rule="evenodd" clip-rule="evenodd" d="M2.44844 0.842475L18.8556 10.7886C19.3889 11.1076 19.688 11.5262 19.7345 11.9557C19.7345 11.4874 19.4446 11.0179 18.8556 10.6588L2.44844 0.712656C1.27049 -0.00558129 0.316528 0.592546 0.316528 2.02902V2.15884C0.316528 0.722362 1.27049 0.133941 2.44844 0.842475Z" fill="white"/>
</g>
</mask>
<g mask="url(#mask2_2574_9514)">
<path opacity="0.25" fill-rule="evenodd" clip-rule="evenodd" d="M2.44844 0.842475L18.8556 10.7886C19.3889 11.1076 19.688 11.5262 19.7345 11.9557C19.7345 11.4874 19.4446 11.0179 18.8556 10.6588L2.44844 0.712656C1.27049 -0.00558129 0.316528 0.592546 0.316528 2.02902V2.15884C0.316528 0.722362 1.27049 0.133941 2.44844 0.842475Z" fill="#020203"/>
<path opacity="0.25" d="M2.44838 0.842476L2.77225 0.138181L2.77028 0.136993L2.44838 0.842476ZM18.8556 10.7886L18.5317 11.4929L18.535 11.4949L18.8556 10.7886ZM19.7345 11.9558L19.0462 12.0542L20.4282 11.9558H19.7345ZM18.8556 10.6588L19.1809 9.95543L19.1794 9.95453L18.8556 10.6588ZM2.44838 0.712657L2.12303 1.41605L2.12451 1.41695L2.44838 0.712657ZM2.12451 1.54676L18.5317 11.4929L19.1794 10.0844L2.77225 0.138185L2.12451 1.54676ZM18.535 11.4949C18.9663 11.753 19.0393 11.9909 19.0462 12.0542L20.4228 11.8573C20.3365 11.0616 19.8114 10.4624 19.1762 10.0823L18.535 11.4949ZM20.4282 11.9558C20.4282 11.0708 19.8841 10.3842 19.1809 9.95543L18.5302 11.3622C19.0049 11.6516 19.0408 11.904 19.0408 11.9558H20.4282ZM19.1794 9.95453L2.77225 0.00836822L2.12451 1.41695L18.5317 11.3631L19.1794 9.95453ZM2.77372 0.00926274C2.05956 -0.426183 1.26932 -0.546322 0.61093 -0.137856C-0.0636837 0.280678 -0.377197 1.11362 -0.377197 2.02902H1.01013C1.01013 1.50795 1.1736 1.32359 1.27045 1.2635C1.38353 1.19334 1.65924 1.13326 2.12304 1.41605L2.77372 0.00926274ZM-0.377197 2.02902V2.15884H1.01013V2.02902H-0.377197ZM1.01013 2.15884C1.01013 1.63856 1.17301 1.45711 1.26915 1.39776C1.38363 1.3271 1.66127 1.26813 2.12648 1.54796L2.77028 0.136993C2.05754 -0.291717 1.26921 -0.410734 0.612227 -0.0052021C-0.0630911 0.411645 -0.377197 1.24264 -0.377197 2.15884H1.01013Z" fill="#020203"/>
</g>
</g>
</svg>

