<svg width="20" height="24" viewBox="0 0 20 24" fill="none" xmlns="http://www.w3.org/2000/svg">
<path d="M16.3795 22.574C15.1162 23.7897 13.7224 23.6002 12.3938 23.027C10.9814 22.4422 9.69015 22.4052 8.1984 23.027C6.3408 23.8221 5.35489 23.591 4.23611 22.574C-2.08028 16.1252 -1.14797 6.30167 6.03081 5.93184C7.77188 6.0243 8.99092 6.88645 10.0164 6.9581C11.5408 6.65069 12.9998 5.77004 14.6314 5.88562C16.5916 6.04279 18.0576 6.81017 19.0365 8.19008C15.0043 10.594 15.9599 15.8639 19.6635 17.3432C18.9224 19.2733 17.9713 21.1801 16.3771 22.5901L16.3795 22.574ZM9.8766 5.8625C9.68783 2.99636 12.0302 0.638733 14.7246 0.407593C15.0952 3.7129 11.6946 6.1861 9.8766 5.8625Z" fill="white"/>
</svg>
