<svg width="21" height="24" viewBox="0 0 21 24" fill="none" xmlns="http://www.w3.org/2000/svg">
<g clip-path="url(#clip0_2574_9156)">
<path fill-rule="evenodd" clip-rule="evenodd" d="M0.949459 0.761933C0.706138 1.04098 0.566284 1.47047 0.566284 2.02856V21.8796C0.566284 22.4377 0.706138 22.8671 0.958559 23.1365L1.0245 23.1959L11.4487 12.073V11.823L1.01541 0.702484L0.949459 0.761933Z" fill="white" fill-opacity="0.6"/>
<path fill-rule="evenodd" clip-rule="evenodd" d="M14.9169 15.7953L11.4398 12.084V11.8244L14.918 8.11305L14.993 8.16278L19.1068 10.6572C20.2848 11.3657 20.2848 12.5329 19.1068 13.2511L14.993 15.7455C14.9919 15.7455 14.9169 15.7953 14.9169 15.7953Z" fill="white"/>
<path fill-rule="evenodd" clip-rule="evenodd" d="M14.9917 15.7456L11.4396 11.9543L0.949463 23.1475C1.33264 23.5867 1.97733 23.6365 2.6982 23.207L14.9917 15.7456Z" fill="white"/>
<path fill-rule="evenodd" clip-rule="evenodd" d="M14.9917 8.16367L2.6982 0.711971C1.97846 0.272779 1.33264 0.332227 0.949463 0.77142L11.4384 11.9539L14.9917 8.16367Z" fill="white"/>
<g opacity="0.2">
<mask id="mask0_2574_9156" style="mask-type:alpha" maskUnits="userSpaceOnUse" x="0" y="15" width="16" height="9">
<g opacity="0.2">
<path opacity="0.2" fill-rule="evenodd" clip-rule="evenodd" d="M14.9166 15.6652L2.70723 23.0672C2.02502 23.4858 1.41671 23.4566 1.02445 23.0769L0.958496 23.1473L1.02445 23.2067C1.41671 23.5853 2.02502 23.6156 2.70723 23.1971L15.0007 15.7453L14.9166 15.6652Z" fill="white"/>
</g>
</mask>
<g mask="url(#mask0_2574_9156)">
<path opacity="0.2" fill-rule="evenodd" clip-rule="evenodd" d="M14.9166 15.6652L2.70723 23.0672C2.02502 23.4858 1.41671 23.4566 1.02445 23.0769L0.958496 23.1473L1.02445 23.2067C1.41671 23.5853 2.02502 23.6156 2.70723 23.1971L15.0007 15.7453L14.9166 15.6652Z" fill="white"/>
<path opacity="0.2" d="M14.9165 15.6652L15.3592 15.0521L15.0024 14.7125L14.5926 14.9609L14.9165 15.6652ZM2.70719 23.0672L2.38329 22.3629L2.38026 22.3648L2.70719 23.0672ZM1.0244 23.0769L1.47154 22.468L1.00202 22.0135L0.552176 22.4935L1.0244 23.0769ZM0.958447 23.1472L0.486229 22.5639L-0.108276 23.1982L0.530087 23.7737L0.958447 23.1472ZM1.0244 23.2067L1.4707 22.597L1.46185 22.5885L1.45276 22.5803L1.0244 23.2067ZM2.70719 23.197L2.38333 22.4927L2.38026 22.4946L2.70719 23.197ZM15.0007 15.7453L15.3245 16.4496L16.2428 15.8929L15.4433 15.1322L15.0007 15.7453ZM14.5926 14.9609L2.38329 22.3629L3.03108 23.7715L15.2404 16.3695L14.5926 14.9609ZM2.38026 22.3648C1.84561 22.6928 1.56961 22.563 1.47154 22.468L0.577257 23.6858C1.26373 24.3503 2.20434 24.2788 3.03411 23.7696L2.38026 22.3648ZM0.552176 22.4935L0.486229 22.5639L1.43067 23.7307L1.49661 23.6603L0.552176 22.4935ZM0.530087 23.7737L0.596034 23.8331L1.45276 22.5803L1.38681 22.5208L0.530087 23.7737ZM0.578094 23.8164C1.26369 24.478 2.20324 24.4092 3.03411 23.8994L2.38026 22.4946C1.8467 22.822 1.56965 22.6925 1.4707 22.597L0.578094 23.8164ZM3.03103 23.9013L15.3245 16.4496L14.6768 15.041L2.38334 22.4927L3.03103 23.9013ZM15.4433 15.1322L15.3592 15.0521L14.4738 16.2784L14.558 16.3585L15.4433 15.1322Z" fill="white"/>
</g>
</g>
<g opacity="0.12">
<mask id="mask1_2574_9156" style="mask-type:alpha" maskUnits="userSpaceOnUse" x="14" y="11" width="6" height="5">
<g opacity="0.12">
<path opacity="0.12" fill-rule="evenodd" clip-rule="evenodd" d="M19.1056 13.1213L14.9077 15.6655L14.9827 15.7456L19.0965 13.2511C19.6855 12.892 19.9754 12.4238 19.9754 11.9543C19.9379 12.3837 19.6388 12.7926 19.1056 13.1213Z" fill="white"/>
</g>
</mask>
<g mask="url(#mask1_2574_9156)">
<path opacity="0.12" fill-rule="evenodd" clip-rule="evenodd" d="M19.1056 13.1213L14.9077 15.6655L14.9827 15.7456L19.0965 13.2511C19.6855 12.892 19.9754 12.4238 19.9754 11.9543C19.9379 12.3837 19.6388 12.7926 19.1056 13.1213Z" fill="white"/>
<path opacity="0.12" d="M19.1056 13.1213L19.4295 13.8257L19.4338 13.823L19.1056 13.1213ZM14.9078 15.6655L14.584 14.9611L13.7196 15.485L14.4355 16.2489L14.9078 15.6655ZM14.9827 15.7456L14.5105 16.329L14.8713 16.7138L15.3067 16.4498L14.9827 15.7456ZM19.0965 13.2511L19.4204 13.9554L19.4219 13.9546L19.0965 13.2511ZM19.9754 11.9543H20.6691L19.2852 11.8748L19.9754 11.9543ZM18.7818 12.417L14.584 14.9611L15.2316 16.3698L19.4295 13.8257L18.7818 12.417ZM14.4355 16.2489L14.5105 16.329L15.455 15.1621L15.38 15.0821L14.4355 16.2489ZM15.3067 16.4498L19.4204 13.9554L18.7726 12.5469L14.6588 15.0413L15.3067 16.4498ZM19.4219 13.9546C20.1247 13.526 20.6691 12.8407 20.6691 11.9543H19.2818C19.2818 12.0068 19.2463 12.2581 18.7712 12.5478L19.4219 13.9546ZM19.2852 11.8748C19.2816 11.9168 19.2264 12.143 18.7775 12.4197L19.4338 13.823C20.0514 13.4423 20.5943 12.8506 20.6656 12.0337L19.2852 11.8748Z" fill="white"/>
</g>
</g>
<g opacity="0.25">
<mask id="mask2_2574_9156" style="mask-type:alpha" maskUnits="userSpaceOnUse" x="0" y="0" width="20" height="12">
<g opacity="0.25">
<path opacity="0.25" fill-rule="evenodd" clip-rule="evenodd" d="M2.69844 0.842475L19.1056 10.7886C19.6389 11.1076 19.938 11.5262 19.9845 11.9557C19.9845 11.4874 19.6946 11.0179 19.1056 10.6588L2.69844 0.712656C1.52049 -0.00558129 0.566528 0.592546 0.566528 2.02902V2.15884C0.566528 0.722362 1.52049 0.133941 2.69844 0.842475Z" fill="white"/>
</g>
</mask>
<g mask="url(#mask2_2574_9156)">
<path opacity="0.25" fill-rule="evenodd" clip-rule="evenodd" d="M2.69844 0.842475L19.1056 10.7886C19.6389 11.1076 19.938 11.5262 19.9845 11.9557C19.9845 11.4874 19.6946 11.0179 19.1056 10.6588L2.69844 0.712656C1.52049 -0.00558129 0.566528 0.592546 0.566528 2.02902V2.15884C0.566528 0.722362 1.52049 0.133941 2.69844 0.842475Z" fill="white"/>
<path opacity="0.25" d="M2.69838 0.842475L3.02225 0.13818L3.02028 0.136992L2.69838 0.842475ZM19.1056 10.7886L18.7817 11.4929L18.785 11.4949L19.1056 10.7886ZM19.9845 11.9558L19.2962 12.0542L20.6782 11.9558H19.9845ZM19.1056 10.6588L19.4309 9.95542L19.4294 9.95452L19.1056 10.6588ZM2.69838 0.712656L2.37303 1.41605L2.37451 1.41695L2.69838 0.712656ZM2.37451 1.54676L18.7817 11.4929L19.4294 10.0843L3.02225 0.138184L2.37451 1.54676ZM18.785 11.4949C19.2163 11.7529 19.2893 11.9909 19.2962 12.0542L20.6728 11.8573C20.5865 11.0616 20.0614 10.4624 19.4262 10.0823L18.785 11.4949ZM20.6782 11.9558C20.6782 11.0708 20.1341 10.3842 19.4309 9.95542L18.7802 11.3622C19.2549 11.6516 19.2908 11.904 19.2908 11.9558H20.6782ZM19.4294 9.95452L3.02225 0.00836727L2.37451 1.41695L18.7817 11.3631L19.4294 9.95452ZM3.02372 0.00926179C2.30956 -0.426184 1.51932 -0.546323 0.86093 -0.137857C0.186316 0.280677 -0.127197 1.11362 -0.127197 2.02902H1.26013C1.26013 1.50795 1.4236 1.32359 1.52045 1.2635C1.63353 1.19334 1.90924 1.13326 2.37304 1.41605L3.02372 0.00926179ZM-0.127197 2.02902V2.15884H1.26013V2.02902H-0.127197ZM1.26013 2.15884C1.26013 1.63856 1.42301 1.45711 1.51915 1.39776C1.63363 1.3271 1.91127 1.26813 2.37648 1.54796L3.02028 0.136992C2.30754 -0.291718 1.51921 -0.410735 0.862227 -0.00520305C0.186909 0.411644 -0.127197 1.24264 -0.127197 2.15884H1.26013Z" fill="white"/>
</g>
</g>
</g>
<defs>
<clipPath id="clip0_2574_9156">
<rect width="20.25" height="24" fill="white" transform="translate(0.25)"/>
</clipPath>
</defs>
</svg>